<svg viewBox="0 0 162 33" xmlns="http://www.w3.org/2000/svg"><path d="M161.972 0H0v33h161.972V0z" fill="#fff"/><path d="M115.288 16.376V6.133c0-.225.045-.27.271-.27h5.052c.203 0 .248.045.248.247v9.772c.022.045.045.09.045.135l.135-.067c.136-.158.248-.315.384-.495.699-.853 1.375-1.707 2.074-2.56.091-.135.203-.18.384-.18h5.548c.045 0 .09.022.113.067.022.023-.023.09-.046.112-.338.427-.699.832-1.037 1.258-1.037 1.258-2.075 2.539-3.112 3.797-.248.314-.496.606-.767.92-.09.113-.09.18 0 .293.744.876 1.488 1.775 2.233 2.65.924 1.101 1.826 2.18 2.729 3.28.428.517.879 1.034 1.308 1.55.022.046.045.09.045.135-.045.023-.09.045-.136.045h-6.044a.32.32 0 0 1-.27-.134c-.925-1.101-1.827-2.224-2.752-3.325-.203-.247-.406-.472-.586-.72-.045-.044-.113-.067-.158-.111-.023.067-.045.112-.045.18v3.908c0 .18-.023.202-.248.202h-5.052c-.293 0-.293 0-.293-.292-.023-3.37-.023-6.762-.023-10.154zM90.594 27.092a6.621 6.621 0 0 1-2.075-.292 7.273 7.273 0 0 1-1.94-.899 9.227 9.227 0 0 1-1.917-1.707 7.57 7.57 0 0 1-1.105-1.775c-.518-1.235-.676-2.538-.564-3.841a7.25 7.25 0 0 1 .429-1.932c.383-1.056.992-1.977 1.782-2.786a8.186 8.186 0 0 1 2.232-1.572c.406-.18.857-.315 1.308-.427.88-.202 1.76-.27 2.639-.202a8.423 8.423 0 0 1 1.669.314 6.619 6.619 0 0 1 1.578.697c.7.404 1.286.943 1.827 1.527.497.54.902 1.123 1.218 1.753.248.516.451 1.055.564 1.64.225 1.01.225 2.044.09 3.077a6.996 6.996 0 0 1-.564 1.887c-.699 1.505-1.826 2.606-3.18 3.504a7.013 7.013 0 0 1-1.984.832c-.677.112-1.308.202-2.007.202zm.225-10.02c-.45 0-.88.09-1.263.315-.586.337-.924.876-1.06 1.528-.09.472-.045.966.113 1.438.203.584.609.943 1.195 1.078.519.135 1.06.135 1.602.022.699-.134 1.172-.539 1.353-1.213.203-.696.203-1.415-.09-2.089a1.436 1.436 0 0 0-.948-.854c-.293-.112-.609-.157-.902-.224zM32.701 19.566c.023.495-.09 1.213-.293 1.91-.27.92-.7 1.73-1.286 2.493a8.844 8.844 0 0 1-1.871 1.797 8.756 8.756 0 0 1-1.557.854c-1.105.427-2.255.562-3.405.472a7.326 7.326 0 0 1-1.962-.45c-1.511-.584-2.661-1.572-3.654-2.808a6.228 6.228 0 0 1-.947-1.684c-.203-.54-.36-1.101-.428-1.685-.068-.562-.113-1.146-.068-1.707.068-.787.226-1.55.541-2.292.496-1.235 1.33-2.246 2.323-3.1a7.06 7.06 0 0 1 1.804-1.1c1.24-.54 2.549-.675 3.88-.562a7.01 7.01 0 0 1 1.781.382 7.51 7.51 0 0 1 2.48 1.482 7.944 7.944 0 0 1 1.737 2.134c.226.427.406.854.564 1.303.27.697.361 1.505.361 2.561zm-10.013-.202c0 .09.022.27.045.45.113.808.541 1.37 1.33 1.572.7.18 1.399.202 2.075-.067.519-.203.857-.607.993-1.124.157-.539.157-1.078.045-1.64-.203-.83-.767-1.28-1.511-1.392-.587-.09-1.173-.09-1.76.112a1.76 1.76 0 0 0-.924.741c-.248.382-.293.809-.293 1.348zM41.564 27.092c-.676.022-1.375-.09-2.075-.292a7.252 7.252 0 0 1-1.984-.921A8.728 8.728 0 0 1 35 23.408a7.2 7.2 0 0 1-.834-1.73c-.316-.989-.406-2-.338-3.01.045-.697.203-1.348.428-2 .406-1.078 1.038-1.999 1.85-2.83.654-.652 1.375-1.19 2.232-1.55a8.515 8.515 0 0 1 1.962-.562c.61-.09 1.24-.135 1.85-.067.406.022.811.112 1.217.202.316.067.632.157.948.27.383.157.789.336 1.15.561.834.472 1.51 1.123 2.12 1.865.496.606.902 1.258 1.172 1.977a7.648 7.648 0 0 1 .497 3.549c-.09.831-.271 1.64-.632 2.404a8.18 8.18 0 0 1-2.075 2.718 7.701 7.701 0 0 1-2.187 1.393 7.302 7.302 0 0 1-2.797.494zm.18-5.571c.09 0 .181-.023.294-.023.406-.045.79-.135 1.105-.382.383-.292.586-.696.676-1.168.09-.584.09-1.146-.112-1.707-.226-.63-.7-.966-1.33-1.078-.61-.113-1.219-.113-1.828.09-.608.202-.992.628-1.15 1.257a3.097 3.097 0 0 0 0 1.573c.09.382.27.696.587.943.518.427 1.127.472 1.759.495z"/><path d="M137.142 27.07c-.699.022-1.398-.09-2.075-.27a6.935 6.935 0 0 1-1.984-.921 9.177 9.177 0 0 1-2.526-2.494 5.934 5.934 0 0 1-.812-1.707c-.429-1.326-.474-2.65-.203-3.999.18-.831.496-1.617.947-2.359.496-.808 1.083-1.527 1.827-2.134a6.834 6.834 0 0 1 1.872-1.1c1.15-.45 2.345-.562 3.563-.517a8.764 8.764 0 0 1 1.894.292c.902.27 1.714.696 2.436 1.28a7.701 7.701 0 0 1 1.849 2.247c.248.472.496.966.699 1.46.203.517.316 1.078.316 1.64 0 .18-.045.225-.225.247-.519.112-1.06.225-1.579.337-.474.09-.925.202-1.398.292-.474.112-.948.202-1.421.314-.474.113-.925.203-1.398.315-.497.112-1.015.225-1.511.337-.451.09-.902.202-1.354.292l-.676.135c-.045 0-.09.045-.09.067.022.045.045.112.09.135.225.18.473.36.699.54.429.336.902.359 1.398.314.677-.068 1.196-.405 1.602-.944.202-.27.202-.27.496-.067l1.691 1.078c.744.472 1.511.966 2.255 1.438.248.157.248.157.045.382-.496.516-.947 1.055-1.465 1.55-.294.292-.609.539-.97.741a7.99 7.99 0 0 1-1.331.629 7.53 7.53 0 0 1-2.233.404c-.135.068-.293.045-.428.045zm.135-10.38c-.248.046-.518.046-.766.136a2.353 2.353 0 0 0-1.263.92c-.158.203-.271.45-.384.675-.022.044 0 .112 0 .157 0 .022.068.022.09.022.519-.112 1.015-.224 1.534-.337l1.488-.337c.316-.067.609-.134.925-.224.135-.045.158-.09.068-.18-.474-.494-1.015-.809-1.692-.831zM7.442 17.456c0-2.988-.022-5.954 0-8.941 0-.876.429-1.573 1.15-2.067.542-.382 1.15-.517 1.805-.517H17.952c.428-.022.383.023.383.405v4.223c0 .247-.022.292-.293.292h-3.699c-.248 0-.496.022-.699.112-.45.158-.609.562-.631.989-.023.674-.023 1.348-.023 2v.381c0 .135.068.18.18.18h2.436c.316 0 .316 0 .316.314v4.29c0 .27-.023.293-.293.293H13.17c-.18 0-.203.022-.203.202v7.054c0 .135-.045.18-.18.18H7.554c-.135 0-.158-.068-.158-.18.045-3.078.045-6.133.045-9.21zM52.502 20.892v-3.55c0-.202-.045-.247-.248-.247H50.45c-.18 0-.203-.022-.203-.202v-4.515c0-.158.045-.202.203-.202h1.782c.225 0 .248-.045.248-.248V7.436c0-.203.022-.225.225-.225h5.007c.225 0 .248.022.248.247 0 .831.023 1.685.023 2.516 0 .652 0 1.28.022 1.932 0 .247.045.27.293.27H59.9c.18 0 .225.044.225.224v4.47c0 .18-.045.225-.225.225h-1.624c-.226 0-.248.045-.248.247v3.235c0 .27 0 .562.158.831.157.292.383.472.721.517.136.023.293.023.429.023h1.533c.248 0 .271.022.271.27v4.357c0 .202-.023.247-.226.247h-5.593a2.937 2.937 0 0 1-1.917-.674 2.434 2.434 0 0 1-.924-1.954c.022-1.078.022-2.18.022-3.302zM107.575 27.07c-.744.044-1.466-.09-2.165-.27a7.249 7.249 0 0 1-1.984-.921 9.26 9.26 0 0 1-2.391-2.292 6.184 6.184 0 0 1-.947-1.931c-.316-1.011-.406-2.045-.316-3.078.09-1.056.384-2.067.947-2.988a8.603 8.603 0 0 1 2.346-2.583 6.611 6.611 0 0 1 1.849-.966 8.039 8.039 0 0 1 3.789-.315c.474.068.947.18 1.398.315.654.202 1.241.516 1.804.898a8.71 8.71 0 0 1 2.053 2.112c.067.09.067.157-.045.225-.993.629-2.008 1.258-3 1.887-.428.27-.857.561-1.308.83-.225.136-.225.136-.406-.066a4.356 4.356 0 0 0-.586-.54c-.316-.247-.722-.292-1.105-.27-.361.023-.699.023-1.038.158-.496.18-.857.494-1.06.988-.248.607-.248 1.236-.09 1.865.135.584.496 1.01 1.083 1.213.631.225 1.24.27 1.894.09.383-.112.677-.36.925-.674.022-.045.067-.067.09-.112.045-.068.113-.068.18-.023 1.15.741 2.323 1.483 3.473 2.224l.948.607c.112.067.112.134.045.224-.699.989-1.511 1.82-2.549 2.449-.767.45-1.601.764-2.48.876-.429.067-.88.09-1.309.135-.045-.023-.045-.045-.045-.068zM71.469 15.276v-9.12c0-.248.023-.27.27-.27h4.962c.226 0 .248.045.248.27v14.332c0 .202.023.404.045.606.068.427.429.786.857.854.18.022.361.022.564.022h3.676c.18 0 .203.045.203.247v4.426c0 .135-.045.202-.203.202H73.95c-.519 0-1.038-.112-1.489-.382a1.858 1.858 0 0 1-.812-.988c-.18-.472-.225-.944-.225-1.438.045-2.92.045-5.84.045-8.761zM146.478 20.42V14.69c0-.359.023-.74.091-1.1.18-.809.631-1.37 1.443-1.618.406-.134.812-.157 1.218-.157h6.608c.225 0 .27.045.27.27v4.358c0 .247-.022.27-.27.27-.835 0-1.647-.023-2.481 0-.271 0-.541.044-.789.134-.384.135-.519.472-.564.854-.023.134 0 .27 0 .404v8.536c0 .135-.045.18-.181.18h-5.096c-.181 0-.226-.045-.226-.202a191.273 191.273 0 0 1-.023-6.2z"/></svg>